HIERARCHY
ROOT Hips
{
    OFFSET   0.000000   0.000000   0.000000
    CHANNELS 6 Xposition Yposition Zposition Zrotation Xrotation Yrotation
    JOINT Chest
    {
        OFFSET   0.000000   8.007230   0.000000
        CHANNELS 3 Zrotation Xrotation Yrotation
        JOINT Chest2
        {
            OFFSET   0.000000  22.077100   0.000000
            CHANNELS 3 Zrotation Xrotation Yrotation
            JOINT Neck
            {
                OFFSET   0.000000  23.254800   0.000000
                CHANNELS 3 Zrotation Xrotation Yrotation
                JOINT Head
                {
                    OFFSET   0.000010  14.370000   1.956600
                    CHANNELS 3 Zrotation Xrotation Yrotation
                    End Site
                    {
                        OFFSET   0.000000  19.566000   0.000000
                    }
                }
            }
            JOINT LeftCollar
            {
                OFFSET   3.911900  19.017000  -0.467062
                CHANNELS 3 Zrotation Xrotation Yrotation
                JOINT LeftShoulder
                {
                    OFFSET  10.383700   0.000000   0.000000
                    CHANNELS 3 Zrotation Xrotation Yrotation
                    JOINT LeftElbow
                    {
                        OFFSET  26.662100   0.001193   0.000835
                        CHANNELS 3 Zrotation Xrotation Yrotation
                        JOINT LeftWrist
                        {
                            OFFSET  28.869000  -0.000058  -0.000075
                            CHANNELS 3 Zrotation Xrotation Yrotation
                            JOINT LeftFinger0
                            {
                                OFFSET   2.044660  -2.323460   3.252850
                                CHANNELS 3 Zrotation Xrotation Yrotation
                                JOINT LeftFinger01
                                {
                                    OFFSET   3.088130   0.000000   0.000000
                                    CHANNELS 3 Zrotation Xrotation Yrotation
                                    JOINT LeftFinger02
                                    {
                                        OFFSET   2.639450   0.000000   0.000000
                                        CHANNELS 3 Zrotation Xrotation Yrotation
                                        End Site
                                        {
                                            OFFSET   2.582190   0.000000   0.000000
                                        }
                                    }
                                }
                            }
                            JOINT LeftFinger1
                            {
                                OFFSET   8.364480   0.000000   3.252850
                                CHANNELS 3 Zrotation Xrotation Yrotation
                                JOINT LeftFinger11
                                {
                                    OFFSET   4.646920   0.000000   0.000000
                                    CHANNELS 3 Zrotation Xrotation Yrotation
                                    JOINT LeftFinger12
                                    {
                                        OFFSET   2.323460   0.000000   0.000000
                                        CHANNELS 3 Zrotation Xrotation Yrotation
                                        End Site
                                        {
                                            OFFSET   2.273050   0.000000   0.000000
                                        }
                                    }
                                }
                            }
                            JOINT LeftFinger2
                            {
                                OFFSET   8.364490   0.000016   1.078090
                                CHANNELS 3 Zrotation Xrotation Yrotation
                                JOINT LeftFinger21
                                {
                                    OFFSET   5.111620   0.000000   0.000000
                                    CHANNELS 3 Zrotation Xrotation Yrotation
                                    JOINT LeftFinger22
                                    {
                                        OFFSET   2.788150   0.000012   0.000000
                                        CHANNELS 3 Zrotation Xrotation Yrotation
                                        End Site
                                        {
                                            OFFSET   2.727660   0.000000   0.000000
                                        }
                                    }
                                }
                            }
                            JOINT LeftFinger3
                            {
                                OFFSET   7.899780   0.000014  -1.078090
                                CHANNELS 3 Zrotation Xrotation Yrotation
                                JOINT LeftFinger31
                                {
                                    OFFSET   4.646930   0.000000   0.000000
                                    CHANNELS 3 Zrotation Xrotation Yrotation
                                    JOINT LeftFinger32
                                    {
                                        OFFSET   2.323470   0.000000   0.000000
                                        CHANNELS 3 Zrotation Xrotation Yrotation
                                        End Site
                                        {
                                            OFFSET   2.273050   0.000000   0.000000
                                        }
                                    }
                                }
                            }
                            JOINT LeftFinger4
                            {
                                OFFSET   7.435090   0.000000  -3.252850
                                CHANNELS 3 Zrotation Xrotation Yrotation
                                JOINT LeftFinger41
                                {
                                    OFFSET   3.717550   0.000000   0.000000
                                    CHANNELS 3 Zrotation Xrotation Yrotation
                                    JOINT LeftFinger42
                                    {
                                        OFFSET   1.858770   0.000000   0.000000
                                        CHANNELS 3 Zrotation Xrotation Yrotation
                                        End Site
                                        {
                                            OFFSET   1.818440   0.000000   0.000000
                                        }
                                    }
                                }
                            }
                        }
                    }
                }
            }
            JOINT RightCollar
            {
                OFFSET  -3.911900  19.017000  -0.467063
                CHANNELS 3 Zrotation Xrotation Yrotation
                JOINT RightShoulder
                {
                    OFFSET -10.383700   0.000023   0.000000
                    CHANNELS 3 Zrotation Xrotation Yrotation
                    JOINT RightElbow
                    {
                        OFFSET -26.662100   0.001246   0.001011
                        CHANNELS 3 Zrotation Xrotation Yrotation
                        JOINT RightWrist
                        {
                            OFFSET -28.869000  -0.000026  -0.000078
                            CHANNELS 3 Zrotation Xrotation Yrotation
                            JOINT RightFinger0
                            {
                                OFFSET  -2.044660  -2.323490   3.252850
                                CHANNELS 3 Zrotation Xrotation Yrotation
                                JOINT RightFinger01
                                {
                                    OFFSET  -3.088130   0.000000   0.000000
                                    CHANNELS 3 Zrotation Xrotation Yrotation
                                    JOINT RightFinger02
                                    {
                                        OFFSET  -2.639460   0.000000   0.000000
                                        CHANNELS 3 Zrotation Xrotation Yrotation
                                        End Site
                                        {
                                            OFFSET  -2.582190   0.000000   0.000000
                                        }
                                    }
                                }
                            }
                            JOINT RightFinger1
                            {
                                OFFSET  -8.364480   0.000000   3.252850
                                CHANNELS 3 Zrotation Xrotation Yrotation
                                JOINT RightFinger11
                                {
                                    OFFSET  -4.646920   0.000000   0.000000
                                    CHANNELS 3 Zrotation Xrotation Yrotation
                                    JOINT RightFinger12
                                    {
                                        OFFSET  -2.323470   0.000000   0.000000
                                        CHANNELS 3 Zrotation Xrotation Yrotation
                                        End Site
                                        {
                                            OFFSET  -2.273050   0.000000   0.000000
                                        }
                                    }
                                }
                            }
                            JOINT RightFinger2
                            {
                                OFFSET  -8.364480   0.000000   1.078090
                                CHANNELS 3 Zrotation Xrotation Yrotation
                                JOINT RightFinger21
                                {
                                    OFFSET  -5.111620   0.000000   0.000000
                                    CHANNELS 3 Zrotation Xrotation Yrotation
                                    JOINT RightFinger22
                                    {
                                        OFFSET  -2.788160   0.000000   0.000000
                                        CHANNELS 3 Zrotation Xrotation Yrotation
                                        End Site
                                        {
                                            OFFSET  -2.727660   0.000000   0.000000
                                        }
                                    }
                                }
                            }
                            JOINT RightFinger3
                            {
                                OFFSET  -7.899780   0.000000  -1.078090
                                CHANNELS 3 Zrotation Xrotation Yrotation
                                JOINT RightFinger31
                                {
                                    OFFSET  -4.646930   0.000000   0.000000
                                    CHANNELS 3 Zrotation Xrotation Yrotation
                                    JOINT RightFinger32
                                    {
                                        OFFSET  -2.323470   0.000000   0.000000
                                        CHANNELS 3 Zrotation Xrotation Yrotation
                                        End Site
                                        {
                                            OFFSET  -2.273050   0.000000   0.000000
                                        }
                                    }
                                }
                            }
                            JOINT RightFinger4
                            {
                                OFFSET  -7.435090   0.000000  -3.252850
                                CHANNELS 3 Zrotation Xrotation Yrotation
                                JOINT RightFinger41
                                {
                                    OFFSET  -3.717550   0.000000   0.000000
                                    CHANNELS 3 Zrotation Xrotation Yrotation
                                    JOINT RightFinger42
                                    {
                                        OFFSET  -1.858760   0.000000   0.000000
                                        CHANNELS 3 Zrotation Xrotation Yrotation
                                        End Site
                                        {
                                            OFFSET  -1.818440   0.000000   0.000000
                                        }
                                    }
                                }
                            }
                        }
                    }
                }
            }
        }
    }
    JOINT LeftHip
    {
        OFFSET   9.783010   0.000000   0.000000
        CHANNELS 3 Zrotation Xrotation Yrotation
        JOINT LeftKnee
        {
            OFFSET   0.000073 -41.789100   0.001749
            CHANNELS 3 Zrotation Xrotation Yrotation
            JOINT LeftAnkle
            {
                OFFSET   0.000111 -41.133200  -0.000179
                CHANNELS 3 Zrotation Xrotation Yrotation
                JOINT LeftToe
                {
                    OFFSET   0.000000  -6.358960  14.674500
                    CHANNELS 3 Zrotation Xrotation Yrotation
                    End Site
                    {
                        OFFSET   0.000000   0.000000   3.913200
                    }
                }
            }
        }
    }
    JOINT RightHip
    {
        OFFSET  -9.783010   0.000000   0.000000
        CHANNELS 3 Zrotation Xrotation Yrotation
        JOINT RightKnee
        {
            OFFSET   0.000424 -41.789200   0.005205
            CHANNELS 3 Zrotation Xrotation Yrotation
            JOINT RightAnkle
            {
                OFFSET   0.000000 -41.133200  -0.000155
                CHANNELS 3 Zrotation Xrotation Yrotation
                JOINT RightToe
                {
                    OFFSET   0.000000  -6.358960  14.674500
                    CHANNELS 3 Zrotation Xrotation Yrotation
                    End Site
                    {
                        OFFSET   0.000000   0.000000   3.913200
                    }
                }
            }
        }
    }
}
MOTION
Frames: 6
Frame Time:   0.016667
 -1.565860  89.607200  -2.816630  -1.598140  -6.656730   1.823750   0.542248   3.262060  -1.106380   1.150390   6.512830  -2.249140   0.888235  -0.022345   0.003697   1.465800  -0.045006   3.796070  -0.786506  -0.200811   1.511410 -77.226500  12.134200  -0.571939  -1.662730  -2.747700 -12.450300  15.586600  -1.981910  -0.021360  43.140700  36.181000 -66.331800 -28.653900   0.001667   0.014375  -9.316950   0.000836   0.006155 -32.659500   6.080120  -9.370800 -27.130000  -0.000927  -0.001288 -18.983400   0.004457  -0.008670 -29.120700  -1.102600   1.976730 -43.698400  -0.003218  -0.006570 -29.110600   0.000109  -0.014566 -29.992600  -1.133090   1.959420 -45.012300   0.000933  -0.013096 -29.981900   0.001286   0.000423 -36.733300  -1.356090   1.812270 -55.132200   0.002670  -0.001006 -36.718000   0.008989  -0.005949   5.665950   0.062426   1.701340  71.650500   4.314310  -5.794700   0.895090  -4.570990   8.066270 -16.370900  -3.959410  -3.555030 -51.059200  41.666100  83.889300  19.483000   0.002298  -0.004442   4.741510   0.000618  -0.000681  36.142300  11.231000  14.926600  30.778900  -0.001245  -0.008232  21.545300  -0.000940  -0.005479  29.628600   3.350090   5.866460  44.700400  -0.002045  -0.003134  29.770500  -0.008371  -0.003969  28.602900   3.243950   5.925650  40.798600  -0.000155  -0.011685  27.171900   0.000000  -0.001396  39.767400  -1.003360  -1.205970  59.666900  -0.013832  -0.008722  39.738100  -0.007940   0.003336   2.252890   7.549490  -3.530690   1.441620   0.972258   6.095350  -1.393080  -2.800970  -1.778590  -0.000000   0.000000  -0.000000   3.712680   6.678200  -1.764420  -0.797317   2.348460 -16.372500   0.298945  -4.136400  -0.169678   0.000000   0.000000   0.000000
 -1.571560  89.607100  -2.816760  -1.595720  -6.641180   1.848240   0.542296   3.244530  -1.105950   1.150190   6.477780  -2.248050   0.888797  -0.015252   0.003693   1.465540  -0.030774   3.779560  -0.793369  -0.187039   1.513980 -77.229600  12.120200  -0.571909  -1.651910  -2.742740 -12.441000  15.588400  -1.984040  -0.026131  43.136500  36.171200 -66.325900 -28.643900   0.001665   0.014375  -9.316940   0.000837   0.006156 -32.653800   6.073680  -9.369160 -27.124600  -0.000928  -0.001286 -18.983400   0.004455  -0.008670 -29.120700  -1.102550   1.976700 -43.701400  -0.003217  -0.006563 -29.110600   0.000104  -0.014566 -29.992600  -1.133010   1.959410 -45.013000   0.000932  -0.013093 -29.981900   0.001280   0.000433 -36.741200  -1.356030   1.812250 -55.144000   0.002666  -0.000999 -36.725900   0.008984  -0.005947   5.670500   0.060863   1.701580  71.675500   4.283340  -5.828090   0.898895  -4.542470   8.039680 -16.378500  -3.945220  -3.570780 -51.067700  41.684600  83.922800  19.509400   0.002312  -0.004433   4.754740   0.000618  -0.000684  36.158100  11.231400  14.919900  30.791200  -0.001246  -0.008225  21.553900  -0.000948  -0.005483  29.636900   3.345870   5.857180  44.712100  -0.002048  -0.003125  29.778300  -0.008368  -0.003964  28.603800   3.239130   5.916710  40.809100  -0.000132  -0.011677  27.178900   0.000000  -0.001392  39.773700  -1.003150  -1.205750  59.676200  -0.013836  -0.008730  39.744300  -0.007947   0.003328   2.258090   7.528720  -3.519790   1.442570   0.965641   6.070970  -1.398320  -2.791320  -1.790560   0.000000   0.000000  -0.000000   3.712260   6.667420  -1.764160  -0.793292   2.340350 -16.375500   0.303259  -4.143780  -0.187306  -0.000000   0.000000  -0.000000
 -1.580950  89.607000  -2.816950  -1.591950  -6.619510   1.885730   0.542160   3.218890  -1.105000   1.149220   6.426540  -2.245820   0.891781  -0.008159   0.003677   1.468180  -0.016540   3.753960  -0.806629  -0.172968   1.519880 -77.236100  12.094600  -0.571857  -1.632220  -2.731830 -12.427800  15.592000  -1.993290  -0.033020  43.134500  36.157400 -66.323700 -28.633900   0.001662   0.014376  -9.316930   0.000841   0.006164 -32.648100   6.067240  -9.367510 -27.119200  -0.000932  -0.001283 -18.983400   0.004453  -0.008668 -29.120700  -1.102510   1.976680 -43.709600  -0.003216  -0.006543 -29.110600   0.000086  -0.014567 -29.992500  -1.132930   1.959400 -45.017900   0.000927  -0.013086 -29.981900   0.001265   0.000460 -36.756800  -1.355970   1.812240 -55.167400   0.002656  -0.000979 -36.741500   0.008969  -0.005941   5.680990   0.052789   1.703250  71.713100   4.252240  -5.878600   0.908431  -4.500780   7.990010 -16.385500  -3.912990  -3.595380 -51.080600  41.713600  83.975300  19.554600   0.002339  -0.004409   4.777310   0.000620  -0.000687  36.182100  11.232000  14.909800  30.810000  -0.001248  -0.008208  21.567000  -0.000968  -0.005494  29.650100   3.338870   5.841890  44.730800  -0.002055  -0.003101  29.790700  -0.008361  -0.003952  28.605300   3.231170   5.901960  40.827900  -0.000075  -0.011655  27.191400   0.000000  -0.001380  39.780000  -1.002870  -1.205450  59.685600  -0.013848  -0.008751  39.750600  -0.007967   0.003306   2.265950   7.502190  -3.508840   1.443790   0.955516   6.046590  -1.407980  -2.776540  -1.810700   0.000000   0.000000   0.000000   3.711700   6.652020  -1.763880  -0.788109   2.332150 -16.386200   0.307555  -4.154950  -0.204936   0.000000   0.000000   0.000000
 -1.588020  89.606800  -2.817060  -1.589510  -6.610620   1.908250   0.541751   3.204000  -1.103610   1.147720   6.396810  -2.242830   0.897887  -0.017071   0.003643   1.476320  -0.034589   3.736800  -0.821080  -0.172619   1.528510 -77.244600  12.061900  -0.575150  -1.611630  -2.713050 -12.421000  15.597900  -2.018730  -0.035579  43.122300  36.148100 -66.334000 -28.640800   0.001671   0.014379  -9.320360   0.000845   0.006187 -32.671200   6.073180  -9.367860 -27.138500  -0.000936  -0.001281 -18.996900   0.004455  -0.008667 -29.128700  -1.102520   1.976680 -43.724200  -0.003214  -0.006513 -29.118600   0.000046  -0.014567 -30.006500  -1.132950   1.959400 -45.040900   0.000923  -0.013072 -29.995900   0.001243   0.000502 -36.776200  -1.355990   1.812250 -55.196400   0.002641  -0.000945 -36.760800   0.008946  -0.005933   5.696220   0.034384   1.711730  71.733600   4.268860  -5.904570   0.923282  -4.481340   7.934310 -16.372400  -3.867330  -3.612400 -51.076800  41.731700  84.009700  19.603000   0.002370  -0.004371   4.801470   0.000634  -0.000665  36.199100  11.232500  14.902600  30.823400  -0.001249  -0.008183  21.576300  -0.000996  -0.005512  29.657200   3.331950   5.827160  44.740300  -0.002066  -0.003065  29.797000  -0.008350  -0.003933  28.606700   3.223480   5.887680  40.839500   0.000012  -0.011621  27.199100   0.000000  -0.001361  39.771000  -1.002740  -1.205320  59.672100  -0.013864  -0.008787  39.741600  -0.007999   0.003274   2.269920   7.495450  -3.510750   1.444340   0.948149   6.046760  -1.418070  -2.766080  -1.827280  -0.000000   0.000000   0.000000   3.714440   6.644330  -1.763900  -0.786063   2.332610 -16.407100   0.300066  -4.160810  -0.202300  -0.000000   0.000000   0.000000
 -1.595310  89.606600  -2.817110  -1.587270  -6.607800   1.927840   0.541234   3.197230  -1.102260   1.146760   6.383280  -2.240010   0.907612  -0.038929   0.003597   1.491090  -0.078876   3.723300  -0.838349  -0.172569   1.537980 -77.251500  12.040900  -0.583828  -1.591690  -2.700210 -12.418300  15.601700  -2.038990  -0.038301  43.102200  36.143400 -66.350700 -28.653700   0.001680   0.014392  -9.326830   0.000856   0.006212 -32.709800   6.082210  -9.368260 -27.170700  -0.000944  -0.001279 -19.019500   0.004456  -0.008667 -29.141300  -1.102600   1.976730 -43.740500  -0.003213  -0.006473 -29.131200   0.000000  -0.014567 -30.028700  -1.133090   1.959420 -45.072000   0.000915  -0.013055 -30.018000   0.001214   0.000556 -36.795300  -1.356090   1.812270 -55.225000   0.002621  -0.000902 -36.779900   0.008915  -0.005922   5.713560   0.010346   1.730880  71.750800   4.304260  -5.931610   0.940740  -4.465740   7.881600 -16.349700  -3.815030  -3.625810 -51.095100  41.750100  84.041800  19.632600   0.002406  -0.004329   4.816280   0.000657  -0.000631  36.208000  11.232700  14.898800  30.830300  -0.001250  -0.008150  21.581200  -0.001033  -0.005537  29.668200   3.327820   5.818430  44.756200  -0.002080  -0.003020  29.807600  -0.008337  -0.003909  28.607600   3.218920   5.879200  40.865700   0.000113  -0.011577  27.216500   0.000000  -0.001338  39.761900  -1.002700  -1.205280  59.658700  -0.013886  -0.008834  39.732700  -0.008041   0.003232   2.271570   7.494450  -3.515210   1.444600   0.944286   6.048020  -1.428400  -2.759870  -1.843910  -0.000000   0.000000  -0.000000   3.721230   6.641260  -1.764210  -0.784251   2.334240 -16.434000   0.286751  -4.166670  -0.195302   0.000000   0.000000   0.000000
 -1.603440  89.606700  -2.815790  -1.584880  -6.614420   1.947070   0.539808   3.197760  -1.101820   1.144100   6.384360  -2.239050   0.921598  -0.071052   0.003528   1.513850  -0.144036   3.716570  -0.858274  -0.178577   1.546270 -77.253300  12.044000  -0.597859  -1.576890  -2.709030 -12.421600  15.595500  -2.041290  -0.043627  43.092200  36.150900 -66.377300 -28.671100   0.001680   0.014427  -9.335530   0.000886   0.006223 -32.749000   6.088660  -9.365840 -27.203100  -0.000963  -0.001276 -19.042200   0.004456  -0.008667 -29.150400  -1.108230   1.986110 -43.754400  -0.003214  -0.006425 -29.140400  -0.000033  -0.014567 -30.047400  -1.139110   1.968570 -45.100400   0.000903  -0.013036 -30.036900   0.001177   0.000623 -36.806900  -1.363010   1.820750 -55.242600   0.002598  -0.000855 -36.791600   0.008876  -0.005910   5.729640  -0.015659   1.761920  71.771900   4.348010  -5.972780   0.957229  -4.456340   7.845550 -16.327400  -3.752950  -3.631680 -51.130600  41.761700  84.058600  19.630400   0.002441  -0.004302   4.815160   0.000677  -0.000612  36.199100  11.232600  14.902600  30.823400  -0.001250  -0.008112  21.576400  -0.001078  -0.005566  29.688400   3.329400   5.819590  44.786800  -0.002098  -0.002969  29.828000  -0.008321  -0.003881  28.607500   3.219830   5.880750  40.921100   0.000217  -0.011528  27.253400   0.000000  -0.001311  39.763700  -1.003740  -1.206380  59.661400  -0.013913  -0.008888  39.734500  -0.008089   0.003181   2.272750   7.500970  -3.522970   1.447080   0.946039   6.054430  -1.437450  -2.758820  -1.860360   0.000000   0.000000   0.000000   3.731330   6.650920  -1.768710  -0.785213   2.335860 -16.463700   0.274093  -4.175070  -0.184521   0.000000   0.000000   0.000000
